<svg version="1.1" id="Layer_1" xmlns="http://www.w3.org/2000/svg" xmlns:xlink="http://www.w3.org/1999/xlink" x="0px" y="0px"
	 width="100%" viewBox="0 0 1024 1024" enable-background="new 0 0 1024 1024" xml:space="preserve">
<path fill="#261F3A" opacity="1.000000" stroke="none" 
	d="
M570.000000,1025.000000 
	C380.000000,1025.000000 190.500000,1025.000000 1.000000,1025.000000 
	C1.000000,683.666687 1.000000,342.333344 1.000000,1.000000 
	C342.333344,1.000000 683.666687,1.000000 1025.000000,1.000000 
	C1025.000000,342.333344 1025.000000,683.666687 1025.000000,1025.000000 
	C873.500000,1025.000000 722.000000,1025.000000 570.000000,1025.000000 
M409.520355,799.958740 
	C409.520355,799.958740 409.099121,800.206726 408.359406,800.448303 
	C400.831390,801.801086 400.485687,802.165466 401.231873,810.106140 
	C401.939667,817.638611 406.498596,822.287598 413.395050,825.969788 
	C415.111938,826.311951 416.828613,826.951904 418.545776,826.953369 
	C480.946442,827.006714 543.347107,827.014526 605.747681,826.929993 
	C607.487366,826.927612 609.225586,825.848328 611.420166,825.019287 
	C611.583130,824.959534 611.746094,824.899841 612.625427,824.851929 
	C620.529785,821.519470 623.302734,817.823181 623.042114,810.966431 
	C622.798462,804.554871 619.297974,800.539917 611.572693,798.046082 
	C611.310852,798.020447 611.112000,797.895020 610.487183,796.943909 
	C609.073975,796.626404 607.660889,796.032227 606.247498,796.031189 
	C543.795715,795.984497 481.343842,795.977722 418.892151,796.059082 
	C417.269226,796.061218 415.647675,797.095520 413.605835,797.954895 
	C413.041290,798.289124 412.476746,798.623352 411.992096,798.984436 
	C411.992096,798.984436 412.017334,798.903992 411.380707,798.898804 
	C410.888306,799.256470 410.395905,799.614075 410.002869,799.972168 
	C410.002869,799.972168 410.001617,799.872803 409.520355,799.958740 
M405.390167,721.090454 
	C405.910461,721.078003 406.430725,721.065613 407.623169,720.936401 
	C408.073730,720.987488 408.524292,721.038635 409.022278,721.369446 
	C409.022278,721.369446 409.100647,721.642029 409.637848,722.278198 
	C411.087067,722.511475 412.536224,722.947998 413.985535,722.948730 
	C479.939362,722.981995 545.893188,722.986877 611.846985,722.921448 
	C613.534851,722.919739 615.221924,722.097961 616.982117,721.387695 
	C616.982117,721.387695 617.027283,721.107666 617.789917,720.975830 
	C620.595337,720.026123 623.400818,719.076416 626.070435,718.112305 
	C626.070435,718.112305 626.068237,718.248840 626.695068,718.078979 
	C627.582397,717.490601 628.469727,716.902161 629.173401,716.252747 
	C629.173401,716.252747 629.140137,716.443298 629.742615,716.244995 
	C630.192444,715.830688 630.642273,715.416321 631.547668,714.916992 
	C631.858643,714.764893 632.017456,714.515808 632.532471,713.932129 
	C632.737915,713.627686 632.943359,713.323242 633.754089,712.724304 
	C638.114075,707.372498 640.281799,701.369080 640.022949,694.345215 
	C639.516724,680.612488 642.276733,667.295959 645.704590,654.088318 
	C653.931580,622.388733 670.469666,595.272644 691.648987,570.721558 
	C713.387390,545.522400 731.746704,518.291870 743.230469,486.759186 
	C749.933533,468.353821 753.939697,449.420166 755.929443,429.050171 
	C756.069031,423.056213 756.208618,417.062286 756.254700,411.157440 
	C756.254700,411.157440 756.358765,411.233887 756.884766,410.748657 
	C756.270691,409.122070 755.656616,407.495514 754.992188,405.520386 
	C754.992188,405.520386 754.951050,405.170563 754.360229,404.587646 
	C752.561829,404.397430 750.763489,404.040985 748.965088,404.040710 
	C591.433289,404.015137 433.901459,404.014465 276.369659,404.054504 
	C274.877960,404.054901 273.386383,404.622284 271.841003,405.277069 
	C271.841003,405.277069 271.894165,405.629242 271.029694,405.743347 
	C270.378174,406.643616 269.179871,407.529816 269.156219,408.446228 
	C268.725891,425.159668 270.180573,441.697327 274.099640,458.750275 
	C278.700348,478.567383 285.926880,497.379028 295.487213,515.334351 
	C307.141296,537.221863 322.805756,556.173096 338.604340,575.067749 
	C358.775665,599.192139 373.963318,626.032227 381.509918,656.773438 
	C383.467010,664.745789 384.426605,672.962952 385.381500,681.736572 
	C385.266785,687.120972 385.054077,692.506714 385.123230,697.888733 
	C385.136475,698.917175 386.261292,699.931335 387.093811,701.589417 
	C387.145020,702.034363 387.196228,702.479248 386.674835,703.052612 
	C387.245789,703.991455 387.816772,704.930359 388.810211,706.210205 
	C388.906189,706.739746 389.002136,707.269348 389.189545,708.442566 
	C389.587769,708.922913 389.985992,709.403320 390.781555,710.102295 
	C390.960175,710.359558 391.048523,710.644775 391.157318,711.532898 
	C391.697021,712.029968 392.236694,712.527039 392.997864,713.083191 
	C392.997864,713.083191 392.951172,713.307678 393.077209,713.920349 
	C393.921234,714.591064 394.765259,715.261780 396.034332,716.528320 
	C398.050903,717.496521 400.067505,718.464661 402.501495,720.053223 
	C403.426544,720.292908 404.351562,720.532654 405.151367,720.749573 
	C405.151367,720.749573 405.197052,720.630737 405.390167,721.090454 
M473.006500,904.008179 
	C473.006500,904.008179 473.006744,903.980469 473.218781,904.692810 
	C476.173431,905.449646 479.121704,906.831848 482.083771,906.862061 
	C501.365265,907.058472 520.650757,907.058960 539.932312,906.863342 
	C543.131714,906.830994 546.318115,905.522888 549.845642,904.253601 
	C565.096375,897.512512 578.262085,887.603455 590.743347,876.791809 
	C596.636841,871.686584 602.154480,866.061279 607.278625,860.180420 
	C611.643799,855.170532 609.845947,849.417908 603.419922,847.010681 
	C603.268555,846.926575 603.117188,846.842529 602.636353,846.070251 
	C601.087646,845.713806 599.539246,845.047302 597.990173,845.045837 
	C541.363586,844.993225 484.736969,844.986450 428.110504,845.075378 
	C426.305847,845.078186 424.502869,846.150513 422.541260,846.922607 
	C422.379974,846.975769 422.229004,847.049866 421.361237,847.168762 
	C415.574310,850.998962 414.948212,856.829468 419.637817,862.053345 
	C434.447479,878.550110 452.072418,891.499146 471.333801,903.364258 
	C471.899017,903.573303 472.464233,903.782349 473.006500,904.008179 
M755.253601,378.724579 
	C755.130737,375.168030 755.007812,371.611511 754.985168,367.350250 
	C754.910767,366.884003 754.836365,366.417755 754.782166,365.237274 
	C754.503418,363.834137 754.224731,362.430969 754.031860,360.329620 
	C753.950745,359.871338 753.869690,359.413086 753.766541,358.187866 
	C753.444458,356.155334 753.122375,354.122833 752.817078,351.286957 
	C748.177185,326.923492 740.387878,303.579529 728.240479,281.977966 
	C707.456787,245.018753 678.154419,216.159027 641.838074,194.478653 
	C637.447937,191.857788 637.478210,189.962570 639.649902,186.131912 
	C650.400330,167.169312 661.035706,148.140228 671.527466,129.033508 
	C673.247742,125.900826 674.633240,122.346489 675.129089,118.839386 
	C675.753723,114.421608 673.773865,110.579071 669.393555,108.837425 
	C665.177246,107.160973 660.255554,109.201500 657.887329,113.360626 
	C650.148254,126.952019 642.674683,140.698486 634.729431,154.167267 
	C629.308472,163.356796 623.269958,172.182007 617.983765,180.427322 
	C601.951965,175.254288 586.954285,170.414948 571.585510,164.944031 
	C569.680237,164.708130 567.775024,164.472229 565.218811,164.135513 
	C564.794434,164.026581 564.370056,163.917664 563.695740,163.140137 
	C553.515137,161.440872 543.373657,158.658508 533.145020,158.289307 
	C516.684570,157.695145 500.165955,158.665192 483.674286,159.071411 
	C482.271088,159.105988 480.885803,159.869080 479.003967,160.811523 
	C453.507050,164.319855 429.045685,171.463028 404.849365,182.534821 
	C395.399109,163.822662 386.225922,145.418640 376.799683,127.145149 
	C374.070435,121.854301 370.968506,116.671677 367.391510,111.926300 
	C363.952118,107.363403 358.913391,107.131493 354.073059,110.388145 
	C349.596771,113.399857 348.450287,117.880135 350.899963,123.053444 
	C351.824951,125.006882 352.844330,126.918671 353.887604,128.812576 
	C364.399475,147.895523 374.910736,166.978851 385.459930,186.041168 
	C387.450562,189.638199 387.208710,191.755829 383.221222,194.412766 
	C371.339630,202.329651 359.186157,210.119354 348.511566,219.517792 
	C304.172699,258.556030 277.438080,307.276337 270.388245,366.270752 
	C269.898987,370.365021 270.823029,374.628204 271.349579,379.149811 
	C271.604706,379.301056 271.783417,379.515869 272.531189,380.358459 
	C274.659027,380.565918 276.786774,380.953461 278.914703,380.954620 
	C338.371033,380.987152 397.827393,380.980469 457.283722,380.980469 
	C554.212524,380.980469 651.141357,380.991760 748.070129,380.913788 
	C750.377258,380.911926 752.683533,379.912292 755.253601,378.724579 
M608.595215,748.014160 
	C607.206177,747.679688 605.817322,747.053589 604.427979,747.052551 
	C542.042236,747.006165 479.656311,746.987427 417.270752,747.120056 
	C414.858887,747.125183 412.450226,748.648315 409.493805,749.822510 
	C403.968170,751.864319 400.581482,755.774597 400.326569,761.672913 
	C400.081146,767.352905 403.206573,771.384033 407.973541,774.205322 
	C408.964996,774.792053 410.006348,775.294495 411.478271,776.472351 
	C413.355743,776.976501 415.232666,777.918945 417.110779,777.921326 
	C481.692657,778.003357 546.274719,778.018738 610.856506,777.899780 
	C612.891418,777.895996 614.923645,776.375732 617.415161,775.116150 
	C619.260986,771.747375 622.277893,768.525391 622.722046,764.981079 
	C623.833130,756.113831 619.928162,752.066040 608.595215,748.014160 
z"/>
<path fill="#FDD33C" opacity="1.000000" stroke="none" 
	d="
M755.801453,429.977600 
	C753.939697,449.420166 749.933533,468.353821 743.230469,486.759186 
	C731.746704,518.291870 713.387390,545.522400 691.648987,570.721558 
	C670.469666,595.272644 653.931580,622.388733 645.704590,654.088318 
	C642.276733,667.295959 639.516724,680.612488 640.022949,694.345215 
	C640.281799,701.369080 638.114075,707.372498 633.228577,713.026672 
	C632.476746,713.609253 632.250488,713.889465 632.024231,714.169678 
	C632.017456,714.515808 631.858643,714.764893 631.003784,715.024963 
	C630.020020,715.569702 629.580078,716.006531 629.140137,716.443298 
	C629.140137,716.443298 629.173401,716.252747 628.907227,716.239563 
	C627.783447,716.900513 626.925842,717.574646 626.068237,718.248779 
	C626.068237,718.248840 626.070435,718.112305 625.715576,718.104370 
	C618.113159,718.737976 610.867126,719.916382 603.617859,719.935974 
	C546.564026,720.090027 489.509521,720.058289 432.455292,719.995483 
	C419.948608,719.981750 407.156250,721.775696 395.244904,715.065430 
	C394.308929,714.434875 393.630035,713.871277 392.951172,713.307678 
	C392.951172,713.307678 392.997864,713.083191 392.789459,712.795471 
	C392.069580,711.991150 391.558105,711.474609 391.046600,710.958008 
	C391.048523,710.644775 390.960175,710.359558 390.472992,709.697327 
	C389.808990,708.794556 389.453552,708.296692 389.098114,707.798889 
	C389.002136,707.269348 388.906189,706.739746 388.508484,705.732239 
	C387.886993,704.477600 387.567200,703.700867 387.247437,702.924194 
	C387.196228,702.479248 387.145020,702.034363 387.011353,700.850891 
	C386.567413,693.764160 386.205933,687.415894 385.844421,681.067688 
	C384.426605,672.962952 383.467010,664.745789 381.509918,656.773438 
	C373.963318,626.032227 358.775665,599.192139 338.604340,575.067749 
	C322.805756,556.173096 307.141296,537.221863 295.487213,515.334351 
	C285.926880,497.379028 278.700348,478.567383 274.347107,458.062439 
	C274.651062,456.560577 274.821045,455.736084 274.747070,454.934113 
	C273.500061,441.410400 271.995026,427.905457 271.043121,414.361511 
	C270.527954,407.031372 270.948517,406.997864 278.246033,406.997589 
	C374.337250,406.993866 470.428436,406.990601 566.519653,406.988861 
	C627.471802,406.987762 688.423950,406.996155 749.376099,406.970886 
	C752.652893,406.969513 755.940125,406.678528 756.358765,411.233887 
	C756.358765,411.233887 756.254700,411.157440 755.997070,411.399719 
	C755.760132,417.753845 755.780823,423.865723 755.801453,429.977600 
z"/>
<path fill="#4AD189" opacity="1.000000" stroke="none" 
	d="
M571.956665,165.575623 
	C586.954285,170.414948 601.951965,175.254288 617.983765,180.427322 
	C623.269958,172.182007 629.308472,163.356796 634.729431,154.167267 
	C642.674683,140.698486 650.148254,126.952019 657.887329,113.360626 
	C660.255554,109.201500 665.177246,107.160973 669.393555,108.837425 
	C673.773865,110.579071 675.753723,114.421608 675.129089,118.839386 
	C674.633240,122.346489 673.247742,125.900826 671.527466,129.033508 
	C661.035706,148.140228 650.400330,167.169312 639.649902,186.131912 
	C637.478210,189.962570 637.447937,191.857788 641.838074,194.478653 
	C678.154419,216.159027 707.456787,245.018753 728.240479,281.977966 
	C740.387878,303.579529 748.177185,326.923492 752.599976,351.985535 
	C752.851440,354.774353 753.320068,356.864594 753.788635,358.954803 
	C753.869690,359.413086 753.950745,359.871338 753.759216,360.928528 
	C753.911743,363.002106 754.336853,364.476807 754.761963,365.951477 
	C754.836365,366.417755 754.910767,366.884003 754.693909,368.023865 
	C753.171082,378.015320 753.171082,378.016968 743.253052,378.016998 
	C588.139099,378.017700 433.025146,378.014465 277.911194,378.051178 
	C275.637360,378.051727 273.363647,378.547943 271.089874,378.812805 
	C270.823029,374.628204 269.898987,370.365021 270.388245,366.270752 
	C277.438080,307.276337 304.172699,258.556030 348.511566,219.517792 
	C359.186157,210.119354 371.339630,202.329651 383.221222,194.412766 
	C387.208710,191.755829 387.450562,189.638199 385.459930,186.041168 
	C374.910736,166.978851 364.399475,147.895523 353.887604,128.812576 
	C352.844330,126.918671 351.824951,125.006882 350.899963,123.053444 
	C348.450287,117.880135 349.596771,113.399857 354.073059,110.388145 
	C358.913391,107.131493 363.952118,107.363403 367.391510,111.926300 
	C370.968506,116.671677 374.070435,121.854301 376.799683,127.145149 
	C386.225922,145.418640 395.399109,163.822662 404.849365,182.534821 
	C429.045685,171.463028 453.507050,164.319855 479.739502,160.685272 
	C487.319794,160.083664 494.173035,159.116058 501.007477,159.234406 
	C515.678284,159.488403 530.352295,160.091141 544.998413,160.985672 
	C551.347961,161.373489 557.631897,162.834930 563.945679,163.808731 
	C564.370056,163.917664 564.794434,164.026581 565.832153,164.453796 
	C568.282532,165.039917 570.119629,165.307770 571.956665,165.575623 
M381.963165,281.697174 
	C379.647186,293.079865 384.525787,302.515076 394.617554,306.170807 
	C404.022278,309.577637 414.225555,305.736053 418.960571,297.005554 
	C424.624878,286.561707 420.501678,273.872314 409.765167,268.706238 
	C398.712128,263.387878 387.255951,268.444733 381.963165,281.697174 
M605.184448,282.196838 
	C605.104370,284.349762 604.851685,286.512482 604.973328,288.653961 
	C605.577026,299.287292 614.495544,307.625641 625.025391,307.508545 
	C635.597229,307.390991 644.348206,298.971222 644.913696,288.373047 
	C645.460632,278.121277 638.774963,269.171814 629.048950,267.136536 
	C618.614929,264.953064 609.770691,270.281525 605.184448,282.196838 
z"/>
<path fill="#918F97" opacity="1.000000" stroke="none" 
	d="
M470.927368,902.910461 
	C452.072418,891.499146 434.447479,878.550110 419.637817,862.053345 
	C414.948212,856.829468 415.574310,850.998962 422.053925,847.394958 
	C423.730927,847.739136 424.715179,847.960083 425.699524,847.960449 
	C483.664551,847.979187 541.629578,847.985413 599.594604,847.948486 
	C601.032959,847.947571 602.471130,847.450256 603.909363,847.184387 
	C609.845947,849.417908 611.643799,855.170532 607.278625,860.180420 
	C602.154480,866.061279 596.636841,871.686584 590.743347,876.791809 
	C578.262085,887.603455 565.096375,897.512512 549.198975,904.467957 
	C547.016235,904.739441 545.480164,904.796570 543.839294,904.754700 
	C543.460449,904.508972 543.229919,904.587341 542.640259,904.981689 
	C541.143616,905.017212 540.049683,904.961792 538.623657,904.666504 
	C537.643005,904.297119 536.994446,904.055481 536.345703,904.054688 
	C518.348328,904.032166 500.350891,904.019165 482.353638,904.069031 
	C481.252106,904.072083 480.152008,904.606201 478.669861,904.979248 
	C476.527924,904.703613 474.767334,904.342041 473.006744,903.980469 
	C473.006744,903.980469 473.006500,904.008179 472.793335,903.800720 
	C472.029236,903.365662 471.478302,903.138062 470.927368,902.910461 
z"/>
<path fill="#918F97" opacity="1.000000" stroke="none" 
	d="
M411.024689,775.835815 
	C410.006348,775.294495 408.964996,774.792053 407.973541,774.205322 
	C403.206573,771.384033 400.081146,767.352905 400.326569,761.672913 
	C400.581482,755.774597 403.968170,751.864319 410.141998,749.569580 
	C411.545441,749.252380 412.300659,749.188110 413.385559,749.366211 
	C415.029480,749.735046 416.343750,749.971741 417.658051,749.972168 
	C479.854218,749.989807 542.050415,749.993958 604.246582,749.947815 
	C605.833801,749.946655 607.420654,749.367249 608.898987,748.992432 
	C608.790344,748.927246 608.899231,748.698486 608.899231,748.698486 
	C619.928162,752.066040 623.833130,756.113831 622.722046,764.981079 
	C622.277893,768.525391 619.260986,771.747375 616.928833,775.423584 
	C616.262573,775.742004 616.082642,775.753113 615.560913,775.548462 
	C614.564087,775.235718 613.909058,775.054016 613.253906,775.053772 
	C547.939514,775.028687 482.625061,775.011536 417.310669,775.043457 
	C415.885864,775.044189 414.461334,775.616699 412.701324,775.965088 
	C411.918854,775.950378 411.471771,775.893066 411.024689,775.835815 
z"/>
<path fill="#918F97" opacity="1.000000" stroke="none" 
	d="
M611.905273,798.192688 
	C619.297974,800.539917 622.798462,804.554871 623.042114,810.966431 
	C623.302734,817.823181 620.529785,821.519470 611.933777,824.615723 
	C610.425293,824.263428 609.608398,824.045898 608.791565,824.045715 
	C544.951660,824.028503 481.111725,824.022461 417.271851,824.063293 
	C415.844055,824.064209 414.416565,824.611694 413.101379,824.972778 
	C413.213837,825.041382 413.097961,825.277954 413.097961,825.277954 
	C406.498596,822.287598 401.939667,817.638611 401.231873,810.106140 
	C400.485687,802.165466 400.831390,801.801086 408.856445,800.406250 
	C409.659485,800.370850 409.875549,800.207092 410.001617,799.872803 
	C410.001617,799.872803 410.002869,799.972168 410.259369,799.925537 
	C411.016357,799.553955 411.516846,799.228943 412.017334,798.903992 
	C412.017334,798.903992 411.992096,798.984436 412.426453,798.964478 
	C477.601654,798.952454 542.342468,798.965881 607.083252,798.935791 
	C608.690735,798.935059 610.297913,798.451233 611.905273,798.192688 
z"/>
<path fill="#50F59A" opacity="1.000000" stroke="none" 
	d="
M271.219727,378.981323 
	C273.363647,378.547943 275.637360,378.051727 277.911194,378.051178 
	C433.025146,378.014465 588.139099,378.017700 743.253052,378.016998 
	C753.171082,378.016968 753.171082,378.015320 754.643799,368.376221 
	C755.007812,371.611511 755.130737,375.168030 754.659241,379.158539 
	C752.734497,379.637024 751.404114,379.720520 750.073730,379.720520 
	C638.812439,379.718811 527.551147,379.700714 416.289886,379.707520 
	C368.155151,379.710480 320.020416,379.763794 271.885681,379.794250 
	C271.783417,379.515869 271.604706,379.301056 271.219727,378.981323 
z"/>
<path fill="#FEFE3B" opacity="1.000000" stroke="none" 
	d="
M756.621765,410.991272 
	C755.940125,406.678528 752.652893,406.969513 749.376099,406.970886 
	C688.423950,406.996155 627.471802,406.987762 566.519653,406.988861 
	C470.428436,406.990601 374.337250,406.993866 278.246033,406.997589 
	C270.948517,406.997864 270.527954,407.031372 271.043121,414.361511 
	C271.995026,427.905457 273.500061,441.410400 274.747070,454.934113 
	C274.821045,455.736084 274.651062,456.560577 274.381683,457.672577 
	C270.180573,441.697327 268.725891,425.159668 269.156219,408.446228 
	C269.179871,407.529816 270.378174,406.643616 271.908478,405.824036 
	C275.887238,405.825470 278.987244,405.746185 282.437683,405.704254 
	C283.491791,405.718506 284.195404,405.695374 285.344238,405.802765 
	C288.555664,405.845795 291.321930,405.758270 294.438690,405.707336 
	C295.492920,405.721924 296.196655,405.699921 297.359772,405.810242 
	C317.239960,405.855835 336.660706,405.769104 356.482391,405.718445 
	C358.223938,405.728149 359.564545,405.701874 361.363892,405.808746 
	C370.576691,405.855927 379.330780,405.769989 388.485107,405.719788 
	C390.223785,405.730225 391.562195,405.704895 393.360016,405.811371 
	C400.574921,405.853241 407.330444,405.763306 414.436676,405.708740 
	C415.490997,405.717712 416.194611,405.691284 417.256531,405.790527 
	C418.106842,405.832031 418.598816,405.747803 419.490479,405.701385 
	C421.227539,405.717468 422.564850,405.695679 424.361603,405.805389 
	C436.909302,405.849670 448.997559,405.762482 461.436798,405.710968 
	C462.492065,405.721954 463.196350,405.697296 464.360413,405.803345 
	C473.243134,405.846100 481.666077,405.758118 490.513641,405.706665 
	C492.925507,405.719452 494.912781,405.695679 497.359528,405.804077 
	C509.575104,405.849670 521.331177,405.763062 533.437988,405.712646 
	C534.492371,405.724670 535.196106,405.700500 536.328369,405.806396 
	C538.533569,405.849640 540.310364,405.762787 542.438110,405.712341 
	C543.493774,405.726318 544.198364,405.703888 545.362183,405.812134 
	C551.908386,405.851349 557.995361,405.759888 564.482788,405.704834 
	C566.223022,405.718628 567.562683,405.696014 569.342163,405.805237 
	C572.216858,405.854065 574.651733,405.771057 577.526367,405.725494 
	C580.612671,405.737061 583.259216,405.711212 586.365417,405.815033 
	C604.246399,405.854279 621.667786,405.763855 639.389832,405.708130 
	C640.092590,405.718384 640.494751,405.693939 641.304443,405.800201 
	C642.837891,405.841217 643.963684,405.751526 645.514282,405.697174 
	C647.927002,405.709503 649.914856,405.686493 652.358582,405.796265 
	C657.238037,405.847015 661.661743,405.764984 666.486206,405.719055 
	C668.227112,405.729004 669.567261,405.702881 671.366699,405.806519 
	C680.579590,405.847687 689.333069,405.759033 698.466858,405.707336 
	C699.864807,405.719391 700.882446,405.694519 702.355286,405.801575 
	C706.902710,405.848602 710.995056,405.763733 715.467773,405.713867 
	C716.865479,405.720459 717.882812,405.692047 719.328308,405.795471 
	C721.533691,405.839935 723.310974,405.752563 725.468140,405.701904 
	C726.864929,405.716095 727.881836,405.693604 729.351868,405.803192 
	C733.565247,405.845856 737.325500,405.756409 741.466187,405.703278 
	C742.864990,405.717133 743.883362,405.694702 745.347595,405.803650 
	C748.876526,405.913025 751.959534,405.890991 755.042542,405.868958 
	C755.656616,407.495514 756.270691,409.122070 756.621765,410.991272 
z"/>
<path fill="#0C0527" opacity="1.000000" stroke="none" 
	d="
M296.900360,405.677917 
	C296.196655,405.699921 295.492920,405.721924 294.104126,405.502380 
	C290.579041,405.397949 287.739044,405.535065 284.899048,405.672211 
	C284.195404,405.695374 283.491791,405.718506 282.086304,405.495789 
	C278.221252,405.141602 275.057983,405.033325 271.894745,404.924988 
	C273.386383,404.622284 274.877960,404.054901 276.369659,404.054504 
	C433.901459,404.014465 591.433289,404.015137 748.965088,404.040710 
	C750.763489,404.040985 752.561829,404.397430 754.220215,404.826111 
	C751.020630,405.267181 747.961182,405.469727 744.901672,405.672272 
	C743.883362,405.694702 742.864990,405.717133 741.113892,405.496735 
	C736.553650,405.392944 732.726196,405.532013 728.898682,405.671082 
	C727.881836,405.693604 726.864929,405.716095 725.169678,405.501038 
	C722.627625,405.396851 720.763855,405.530243 718.900146,405.663635 
	C717.882812,405.692047 716.865479,405.720459 715.112183,405.506927 
	C710.217590,405.399872 706.058838,405.534729 701.900146,405.669617 
	C700.882446,405.694519 699.864807,405.719391 698.105835,405.497345 
	C688.545471,405.392517 679.726440,405.534607 670.907410,405.676697 
	C669.567261,405.702881 668.227112,405.729004 666.128784,405.511230 
	C660.881348,405.399384 656.392090,405.531433 651.902771,405.663513 
	C649.914856,405.686493 647.927002,405.709503 645.258789,405.500793 
	C643.351318,405.402557 642.124084,405.536041 640.896851,405.669495 
	C640.494751,405.693939 640.092590,405.718384 639.027832,405.499664 
	C623.317261,405.180817 608.269287,405.074371 593.221375,405.060455 
	C590.783020,405.058197 588.344360,405.466736 585.905823,405.685364 
	C583.259216,405.711212 580.612671,405.737061 577.202026,405.520447 
	C573.926086,405.409790 571.414246,405.541626 568.902344,405.673462 
	C567.562683,405.696014 566.223022,405.718628 564.121887,405.496552 
	C557.207947,405.395081 551.055420,405.538269 544.902954,405.681458 
	C544.198364,405.703888 543.493774,405.726318 542.139404,405.512238 
	C539.626343,405.409241 537.763062,405.542786 535.899841,405.676331 
	C535.196106,405.700500 534.492371,405.724670 533.076172,405.504211 
	C520.542480,405.397003 508.721283,405.534454 496.900055,405.671875 
	C494.912781,405.695679 492.925507,405.719452 490.152130,405.497070 
	C480.877563,405.391510 472.389099,405.532043 463.900635,405.672607 
	C463.196350,405.697296 462.492065,405.721954 461.075012,405.502747 
	C448.208893,405.397247 436.055542,405.535583 423.902161,405.673920 
	C422.564850,405.695679 421.227539,405.717468 419.315430,405.513824 
	C418.126495,405.413910 417.512329,405.539398 416.898193,405.664856 
	C416.194611,405.691284 415.490997,405.717712 414.075134,405.500305 
	C406.542114,405.397491 399.721344,405.538544 392.900604,405.679565 
	C391.562195,405.704895 390.223785,405.730225 388.123627,405.511292 
	C378.542969,405.403198 369.724091,405.539368 360.905182,405.675568 
	C359.564545,405.701874 358.223938,405.728149 356.121277,405.509949 
	C336.493011,405.202606 317.626770,405.134033 298.760468,405.102600 
	C298.140778,405.101562 297.520416,405.477661 296.900360,405.677917 
z"/>
<path fill="#0C0527" opacity="1.000000" stroke="none" 
	d="
M272.208435,380.076355 
	C320.020416,379.763794 368.155151,379.710480 416.289886,379.707520 
	C527.551147,379.700714 638.812439,379.718811 750.073730,379.720520 
	C751.404114,379.720520 752.734497,379.637024 754.527588,379.485291 
	C752.683533,379.912292 750.377258,380.911926 748.070129,380.913788 
	C651.141357,380.991760 554.212524,380.980469 457.283722,380.980469 
	C397.827393,380.980469 338.371033,380.987152 278.914703,380.954620 
	C276.786774,380.953461 274.659027,380.565918 272.208435,380.076355 
z"/>
<path fill="#0C0527" opacity="1.000000" stroke="none" 
	d="
M616.909363,721.658691 
	C615.221924,722.097961 613.534851,722.919739 611.846985,722.921448 
	C545.893188,722.986877 479.939362,722.981995 413.985535,722.948730 
	C412.536224,722.947998 411.087067,722.511475 409.632019,722.020508 
	C410.114868,721.585388 410.603485,721.407959 411.553772,721.196045 
	C479.980774,721.180786 547.946167,721.200012 616.040161,721.362122 
	C616.399292,721.634949 616.646118,721.686157 616.909363,721.658691 
z"/>
<path fill="#0C0527" opacity="1.000000" stroke="none" 
	d="
M411.251465,776.154053 
	C411.471771,775.893066 411.918854,775.950378 413.161133,776.049072 
	C415.951965,776.126404 417.947571,776.193604 419.943176,776.193848 
	C481.342194,776.201172 542.741211,776.210022 604.140259,776.184998 
	C608.061157,776.183411 611.981873,775.910767 615.902710,775.764160 
	C616.082642,775.753113 616.262573,775.742004 616.699829,775.646667 
	C614.923645,776.375732 612.891418,777.895996 610.856506,777.899780 
	C546.274719,778.018738 481.692657,778.003357 417.110779,777.921326 
	C415.232666,777.918945 413.355743,776.976501 411.251465,776.154053 
z"/>
<path fill="#B3B2B5" opacity="1.000000" stroke="none" 
	d="
M611.739014,798.119385 
	C610.297913,798.451233 608.690735,798.935059 607.083252,798.935791 
	C542.342468,798.965881 477.601654,798.952454 412.386505,798.951050 
	C412.476746,798.623352 413.041290,798.289124 414.286285,797.786987 
	C416.958679,797.537476 418.950623,797.385071 420.942566,797.384705 
	C467.664612,797.376099 514.386658,797.360474 561.108704,797.401611 
	C577.731201,797.416260 594.353638,797.576172 610.976074,797.669800 
	C611.112000,797.895020 611.310852,798.020447 611.739014,798.119385 
z"/>
<path fill="#0C0527" opacity="1.000000" stroke="none" 
	d="
M610.964478,825.271179 
	C609.225586,825.848328 607.487366,826.927612 605.747681,826.929993 
	C543.347107,827.014526 480.946442,827.006714 418.545776,826.953369 
	C416.828613,826.951904 415.111938,826.311951 413.246521,825.623901 
	C413.097961,825.277954 413.213837,825.041382 413.558289,825.091309 
	C422.714050,825.218628 431.525391,825.364502 440.336731,825.362549 
	C497.212646,825.350098 554.088562,825.305359 610.964478,825.271179 
z"/>
<path fill="#0C0527" opacity="1.000000" stroke="none" 
	d="
M413.055908,749.123840 
	C412.300659,749.188110 411.545441,749.252380 410.415131,749.390381 
	C412.450226,748.648315 414.858887,747.125183 417.270752,747.120056 
	C479.656311,746.987427 542.042236,747.006165 604.427979,747.052551 
	C605.817322,747.053589 607.206177,747.679688 608.747192,748.356323 
	C608.899231,748.698486 608.790344,748.927246 608.434570,748.920349 
	C567.342102,748.871826 526.605408,748.782654 485.868683,748.806458 
	C461.597687,748.820679 437.326843,749.012085 413.055908,749.123840 
z"/>
<path fill="#0C0527" opacity="1.000000" stroke="none" 
	d="
M422.699127,846.724243 
	C424.502869,846.150513 426.305847,845.078186 428.110504,845.075378 
	C484.736969,844.986450 541.363586,844.993225 597.990173,845.045837 
	C599.539246,845.047302 601.087646,845.713806 602.334656,846.424683 
	C542.255005,846.760803 482.477081,846.742554 422.699127,846.724243 
z"/>
<path fill="#FEFE3B" opacity="1.000000" stroke="none" 
	d="
M615.911499,721.219238 
	C547.946167,721.200012 479.980774,721.180786 411.211548,721.080444 
	C409.930054,721.029541 409.452454,721.059692 408.974854,721.089844 
	C408.524292,721.038635 408.073730,720.987488 407.005127,720.885498 
	C405.990387,720.766724 405.593719,720.698730 405.197052,720.630737 
	C405.197052,720.630737 405.151367,720.749573 404.968384,720.504639 
	C403.884949,719.984131 402.984528,719.708435 402.084106,719.432739 
	C400.067505,718.464661 398.050903,717.496521 395.824646,716.026611 
	C395.614960,715.524902 395.501984,715.132385 395.501984,715.132385 
	C407.156250,721.775696 419.948608,719.981750 432.455292,719.995483 
	C489.509521,720.058289 546.564026,720.090027 603.617859,719.935974 
	C610.867126,719.916382 618.113159,718.737976 625.783447,718.111572 
	C623.400818,719.076416 620.595337,720.026123 617.121765,720.990479 
	C616.272888,721.076477 616.092224,721.147888 615.911499,721.219238 
z"/>
<path fill="#B3B2B5" opacity="1.000000" stroke="none" 
	d="
M611.192322,825.145264 
	C554.088562,825.305359 497.212646,825.350098 440.336731,825.362549 
	C431.525391,825.364502 422.714050,825.218628 413.445831,825.022705 
	C414.416565,824.611694 415.844055,824.064209 417.271851,824.063293 
	C481.111725,824.022461 544.951660,824.028503 608.791565,824.045715 
	C609.608398,824.045898 610.425293,824.263428 611.575623,824.609863 
	C611.746094,824.899841 611.583130,824.959534 611.192322,825.145264 
z"/>
<path fill="#0C0527" opacity="1.000000" stroke="none" 
	d="
M610.731628,797.306885 
	C594.353638,797.576172 577.731201,797.416260 561.108704,797.401611 
	C514.386658,797.360474 467.664612,797.376099 420.942566,797.384705 
	C418.950623,797.385071 416.958679,797.537476 414.496094,797.633728 
	C415.647675,797.095520 417.269226,796.061218 418.892151,796.059082 
	C481.343842,795.977722 543.795715,795.984497 606.247498,796.031189 
	C607.660889,796.032227 609.073975,796.626404 610.731628,797.306885 
z"/>
<path fill="#B3B2B5" opacity="1.000000" stroke="none" 
	d="
M422.620178,846.823425 
	C482.477081,846.742554 542.255005,846.760803 602.499390,846.768799 
	C603.117188,846.842529 603.268555,846.926575 603.664673,847.097534 
	C602.471130,847.450256 601.032959,847.947571 599.594604,847.948486 
	C541.629578,847.985413 483.664551,847.979187 425.699524,847.960449 
	C424.715179,847.960083 423.730927,847.739136 422.417480,847.383057 
	C422.229004,847.049866 422.379974,846.975769 422.620178,846.823425 
z"/>
<path fill="#0C0527" opacity="1.000000" stroke="none" 
	d="
M543.944031,904.853638 
	C545.480164,904.796570 547.016235,904.739441 549.031494,904.743286 
	C546.318115,905.522888 543.131714,906.830994 539.932312,906.863342 
	C520.650757,907.058960 501.365265,907.058472 482.083771,906.862061 
	C479.121704,906.831848 476.173431,905.449646 473.112762,904.336609 
	C474.767334,904.342041 476.527924,904.703613 479.132507,905.032104 
	C499.636230,904.968140 519.295959,904.937317 538.955750,904.906433 
	C540.049683,904.961792 541.143616,905.017212 542.867310,905.015503 
	C543.497009,904.958435 543.944031,904.853638 543.944031,904.853638 
z"/>
<path fill="#0C0527" opacity="1.000000" stroke="none" 
	d="
M563.820679,163.474426 
	C557.631897,162.834930 551.347961,161.373489 544.998413,160.985672 
	C530.352295,160.091141 515.678284,159.488403 501.007477,159.234406 
	C494.173035,159.116058 487.319794,160.083664 479.983643,160.426376 
	C480.885803,159.869080 482.271088,159.105988 483.674286,159.071411 
	C500.165955,158.665192 516.684570,157.695145 533.145020,158.289307 
	C543.373657,158.658508 553.515137,161.440872 563.820679,163.474426 
z"/>
<path fill="#0C0527" opacity="1.000000" stroke="none" 
	d="
M385.612976,681.402100 
	C386.205933,687.415894 386.567413,693.764160 386.901062,700.532227 
	C386.261292,699.931335 385.136475,698.917175 385.123230,697.888733 
	C385.054077,692.506714 385.266785,687.120972 385.612976,681.402100 
z"/>
<path fill="#FEFE3B" opacity="1.000000" stroke="none" 
	d="
M755.865479,429.513885 
	C755.780823,423.865723 755.760132,417.753845 756.043823,411.355164 
	C756.208618,417.062286 756.069031,423.056213 755.865479,429.513885 
z"/>
<path fill="#50F59A" opacity="1.000000" stroke="none" 
	d="
M753.777588,358.571350 
	C753.320068,356.864594 752.851440,354.774353 752.591553,352.387207 
	C753.122375,354.122833 753.444458,356.155334 753.777588,358.571350 
z"/>
<path fill="#624E39" opacity="1.000000" stroke="none" 
	d="
M271.867859,405.101044 
	C275.057983,405.033325 278.221252,405.141602 281.735840,405.458374 
	C278.987244,405.746185 275.887238,405.825470 272.340698,405.766998 
	C271.894165,405.629242 271.841003,405.277069 271.867859,405.101044 
z"/>
<path fill="#624E39" opacity="1.000000" stroke="none" 
	d="
M745.347595,405.803650 
	C747.961182,405.469727 751.020630,405.267181 754.515625,405.117584 
	C754.951050,405.170563 754.992188,405.520386 755.017334,405.694702 
	C751.959534,405.890991 748.876526,405.913025 745.347595,405.803650 
z"/>
<path fill="#0C0527" opacity="1.000000" stroke="none" 
	d="
M571.771118,165.259827 
	C570.119629,165.307770 568.282532,165.039917 566.157593,164.504211 
	C567.775024,164.472229 569.680237,164.708130 571.771118,165.259827 
z"/>
<path fill="#50F59A" opacity="1.000000" stroke="none" 
	d="
M754.772095,365.594360 
	C754.336853,364.476807 753.911743,363.002106 753.716309,361.277618 
	C754.224731,362.430969 754.503418,363.834137 754.772095,365.594360 
z"/>
<path fill="#0C0527" opacity="1.000000" stroke="none" 
	d="
M386.961121,702.988403 
	C387.567200,703.700867 387.886993,704.477600 388.297241,705.561768 
	C387.816772,704.930359 387.245789,703.991455 386.961121,702.988403 
z"/>
<path fill="#0C0527" opacity="1.000000" stroke="none" 
	d="
M395.244904,715.065430 
	C395.501984,715.132385 395.614960,715.524902 395.612122,715.728638 
	C394.765259,715.261780 393.921234,714.591064 393.014191,713.614014 
	C393.630035,713.871277 394.308929,714.434875 395.244904,715.065430 
z"/>
<path fill="#FEFE3B" opacity="1.000000" stroke="none" 
	d="
M626.381592,718.163879 
	C626.925842,717.574646 627.783447,716.900513 628.999023,716.270020 
	C628.469727,716.902161 627.582397,717.490601 626.381592,718.163879 
z"/>
<path fill="#0C0527" opacity="1.000000" stroke="none" 
	d="
M391.101959,711.245483 
	C391.558105,711.474609 392.069580,711.991150 392.678711,712.765991 
	C392.236694,712.527039 391.697021,712.029968 391.101959,711.245483 
z"/>
<path fill="#0C0527" opacity="1.000000" stroke="none" 
	d="
M402.292786,719.742981 
	C402.984528,719.708435 403.884949,719.984131 405.031006,720.516052 
	C404.351562,720.532654 403.426544,720.292908 402.292786,719.742981 
z"/>
<path fill="#B3B2B5" opacity="1.000000" stroke="none" 
	d="
M411.699036,798.901367 
	C411.516846,799.228943 411.016357,799.553955 410.209686,799.925293 
	C410.395905,799.614075 410.888306,799.256470 411.699036,798.901367 
z"/>
<path fill="#624E39" opacity="1.000000" stroke="none" 
	d="
M408.998566,721.229614 
	C409.452454,721.059692 409.930054,721.029541 410.749878,721.114990 
	C410.603485,721.407959 410.114868,721.585388 409.363434,721.702393 
	C409.100647,721.642029 409.022278,721.369446 408.998566,721.229614 
z"/>
<path fill="#0C0527" opacity="1.000000" stroke="none" 
	d="
M405.293610,720.860596 
	C405.593719,720.698730 405.990387,720.766724 406.669037,720.943909 
	C406.430725,721.065613 405.910461,721.078003 405.293610,720.860596 
z"/>
<path fill="#FEFE3B" opacity="1.000000" stroke="none" 
	d="
M629.441406,716.344116 
	C629.580078,716.006531 630.020020,715.569702 630.776001,715.067444 
	C630.642273,715.416321 630.192444,715.830688 629.441406,716.344116 
z"/>
<path fill="#0C0527" opacity="1.000000" stroke="none" 
	d="
M471.130585,903.137329 
	C471.478302,903.138062 472.029236,903.365662 472.804810,903.792297 
	C472.464233,903.782349 471.899017,903.573303 471.130585,903.137329 
z"/>
<path fill="#0C0527" opacity="1.000000" stroke="none" 
	d="
M389.143829,708.120728 
	C389.453552,708.296692 389.808990,708.794556 390.274353,709.588013 
	C389.985992,709.403320 389.587769,708.922913 389.143829,708.120728 
z"/>
<path fill="#624E39" opacity="1.000000" stroke="none" 
	d="
M616.040161,721.362183 
	C616.092224,721.147888 616.272888,721.076477 616.740479,721.056396 
	C617.027283,721.107666 616.982117,721.387695 616.945740,721.523193 
	C616.646118,721.686157 616.399292,721.634949 616.040161,721.362183 
z"/>
<path fill="#B3B2B5" opacity="1.000000" stroke="none" 
	d="
M409.760986,799.915771 
	C409.875549,800.207092 409.659485,800.370850 409.226288,800.285400 
	C409.099121,800.206726 409.520355,799.958740 409.760986,799.915771 
z"/>
<path fill="#FEFE3B" opacity="1.000000" stroke="none" 
	d="
M632.278320,714.050903 
	C632.250488,713.889465 632.476746,713.609253 632.925903,713.173950 
	C632.943359,713.323242 632.737915,713.627686 632.278320,714.050903 
z"/>
<path fill="#261F3A" opacity="1.000000" stroke="none" 
	d="
M382.040405,281.303650 
	C387.255951,268.444733 398.712128,263.387878 409.765167,268.706238 
	C420.501678,273.872314 424.624878,286.561707 418.960571,297.005554 
	C414.225555,305.736053 404.022278,309.577637 394.617554,306.170807 
	C384.525787,302.515076 379.647186,293.079865 382.040405,281.303650 
z"/>
<path fill="#261F3A" opacity="1.000000" stroke="none" 
	d="
M605.292786,281.790344 
	C609.770691,270.281525 618.614929,264.953064 629.048950,267.136536 
	C638.774963,269.171814 645.460632,278.121277 644.913696,288.373047 
	C644.348206,298.971222 635.597229,307.390991 625.025391,307.508545 
	C614.495544,307.625641 605.577026,299.287292 604.973328,288.653961 
	C604.851685,286.512482 605.104370,284.349762 605.292786,281.790344 
z"/>
<path fill="#B3B2B5" opacity="1.000000" stroke="none" 
	d="
M538.623657,904.666504 
	C519.295959,904.937317 499.636230,904.968140 479.513855,904.946167 
	C480.152008,904.606201 481.252106,904.072083 482.353638,904.069031 
	C500.350891,904.019165 518.348328,904.032166 536.345703,904.054688 
	C536.994446,904.055481 537.643005,904.297119 538.623657,904.666504 
z"/>
<path fill="#B3B2B5" opacity="1.000000" stroke="none" 
	d="
M543.839294,904.754639 
	C543.944031,904.853638 543.497009,904.958435 543.269958,904.924561 
	C543.229919,904.587341 543.460449,904.508972 543.839294,904.754639 
z"/>
<path fill="#B3B2B5" opacity="1.000000" stroke="none" 
	d="
M615.560913,775.548462 
	C611.981873,775.910767 608.061157,776.183411 604.140259,776.184998 
	C542.741211,776.210022 481.342194,776.201172 419.943176,776.193848 
	C417.947571,776.193604 415.951965,776.126404 413.496521,776.006470 
	C414.461334,775.616699 415.885864,775.044189 417.310669,775.043457 
	C482.625061,775.011536 547.939514,775.028687 613.253906,775.053772 
	C613.909058,775.054016 614.564087,775.235718 615.560913,775.548462 
z"/>
<path fill="#B3B2B5" opacity="1.000000" stroke="none" 
	d="
M413.385559,749.366211 
	C437.326843,749.012085 461.597687,748.820679 485.868683,748.806458 
	C526.605408,748.782654 567.342102,748.871826 608.543213,748.985474 
	C607.420654,749.367249 605.833801,749.946655 604.246582,749.947815 
	C542.050415,749.993958 479.854218,749.989807 417.658051,749.972168 
	C416.343750,749.971741 415.029480,749.735046 413.385559,749.366211 
z"/>
<path fill="#624E39" opacity="1.000000" stroke="none" 
	d="
M297.359772,405.810242 
	C297.520416,405.477661 298.140778,405.101562 298.760468,405.102600 
	C317.626770,405.134033 336.493011,405.202606 355.720398,405.473907 
	C336.660706,405.769104 317.239960,405.855835 297.359772,405.810242 
z"/>
<path fill="#624E39" opacity="1.000000" stroke="none" 
	d="
M586.365417,405.815033 
	C588.344360,405.466736 590.783020,405.058197 593.221375,405.060455 
	C608.269287,405.074371 623.317261,405.180817 638.727173,405.464966 
	C621.667786,405.763855 604.246399,405.854279 586.365417,405.815033 
z"/>
<path fill="#624E39" opacity="1.000000" stroke="none" 
	d="
M424.361603,405.805389 
	C436.055542,405.535583 448.208893,405.397247 460.724060,405.467102 
	C448.997559,405.762482 436.909302,405.849670 424.361603,405.805389 
z"/>
<path fill="#624E39" opacity="1.000000" stroke="none" 
	d="
M497.359528,405.804077 
	C508.721283,405.534454 520.542480,405.397003 532.725464,405.468018 
	C521.331177,405.763062 509.575104,405.849670 497.359528,405.804077 
z"/>
<path fill="#624E39" opacity="1.000000" stroke="none" 
	d="
M671.366699,405.806519 
	C679.726440,405.534607 688.545471,405.392517 697.725586,405.460388 
	C689.333069,405.759033 680.579590,405.847687 671.366699,405.806519 
z"/>
<path fill="#624E39" opacity="1.000000" stroke="none" 
	d="
M361.363892,405.808716 
	C369.724091,405.539368 378.542969,405.403198 387.723389,405.475525 
	C379.330780,405.769989 370.576691,405.855927 361.363892,405.808716 
z"/>
<path fill="#624E39" opacity="1.000000" stroke="none" 
	d="
M464.360413,405.803345 
	C472.389099,405.532043 480.877563,405.391510 489.727539,405.460510 
	C481.666077,405.758118 473.243134,405.846100 464.360413,405.803345 
z"/>
<path fill="#624E39" opacity="1.000000" stroke="none" 
	d="
M393.360016,405.811401 
	C399.721344,405.538544 406.542114,405.397491 413.724396,405.464905 
	C407.330444,405.763306 400.574921,405.853241 393.360016,405.811401 
z"/>
<path fill="#624E39" opacity="1.000000" stroke="none" 
	d="
M545.362183,405.812134 
	C551.055420,405.538269 557.207947,405.395081 563.721313,405.460144 
	C557.995361,405.759888 551.908386,405.851349 545.362183,405.812134 
z"/>
<path fill="#624E39" opacity="1.000000" stroke="none" 
	d="
M652.358582,405.796265 
	C656.392090,405.531433 660.881348,405.399384 665.728027,405.475128 
	C661.661743,405.764984 657.238037,405.847015 652.358582,405.796265 
z"/>
<path fill="#624E39" opacity="1.000000" stroke="none" 
	d="
M702.355286,405.801575 
	C706.058838,405.534729 710.217590,405.399872 714.731812,405.471924 
	C710.995056,405.763733 706.902710,405.848602 702.355286,405.801575 
z"/>
<path fill="#624E39" opacity="1.000000" stroke="none" 
	d="
M729.351868,405.803162 
	C732.726196,405.532013 736.553650,405.392944 740.733398,405.460449 
	C737.325500,405.756409 733.565247,405.845856 729.351868,405.803162 
z"/>
<path fill="#624E39" opacity="1.000000" stroke="none" 
	d="
M285.344238,405.802765 
	C287.739044,405.535065 290.579041,405.397949 293.753601,405.465790 
	C291.321930,405.758270 288.555664,405.845795 285.344238,405.802765 
z"/>
<path fill="#624E39" opacity="1.000000" stroke="none" 
	d="
M569.342163,405.805237 
	C571.414246,405.541626 573.926086,405.409790 576.762329,405.483002 
	C574.651733,405.771057 572.216858,405.854065 569.342163,405.805237 
z"/>
<path fill="#624E39" opacity="1.000000" stroke="none" 
	d="
M536.328369,405.806396 
	C537.763062,405.542786 539.626343,405.409241 541.788330,405.475830 
	C540.310364,405.762787 538.533569,405.849640 536.328369,405.806396 
z"/>
<path fill="#624E39" opacity="1.000000" stroke="none" 
	d="
M719.328308,405.795471 
	C720.763855,405.530243 722.627625,405.396851 724.789795,405.464325 
	C723.310974,405.752563 721.533691,405.839935 719.328308,405.795471 
z"/>
<path fill="#624E39" opacity="1.000000" stroke="none" 
	d="
M641.304443,405.800201 
	C642.124084,405.536041 643.351318,405.402557 644.834045,405.465454 
	C643.963684,405.751526 642.837891,405.841217 641.304443,405.800201 
z"/>
<path fill="#624E39" opacity="1.000000" stroke="none" 
	d="
M417.256531,405.790588 
	C417.512329,405.539398 418.126495,405.413910 418.915710,405.475983 
	C418.598816,405.747803 418.106842,405.832031 417.256531,405.790588 
z"/>
</svg>